<svg xmlns="http://www.w3.org/2000/svg" xmlns:xlink="http://www.w3.org/1999/xlink" width="500" zoomAndPan="magnify" viewBox="0 0 375 187.499995" height="250" preserveAspectRatio="xMidYMid meet" version="1.0"><defs><g/><clipPath id="da59e6fb9f"><path d="M 267 71 L 289 71 L 289 93 L 267 93 Z M 267 71 " clip-rule="nonzero"/></clipPath><clipPath id="62ee1f7f80"><path d="M 263.324219 74.5 L 278.15625 60.792969 L 298.464844 82.765625 L 283.632812 96.472656 Z M 263.324219 74.5 " clip-rule="nonzero"/></clipPath><clipPath id="3277ea379f"><path d="M 263.324219 74.5 L 278.15625 60.792969 L 298.464844 82.765625 L 283.632812 96.472656 Z M 263.324219 74.5 " clip-rule="nonzero"/></clipPath><clipPath id="0e912b72cc"><path d="M 278 61 L 300 61 L 300 83 L 278 83 Z M 278 61 " clip-rule="nonzero"/></clipPath><clipPath id="a0d6d19135"><path d="M 273.96875 64.664062 L 288.796875 50.957031 L 309.105469 72.929688 L 294.277344 86.636719 Z M 273.96875 64.664062 " clip-rule="nonzero"/></clipPath><clipPath id="9537807e26"><path d="M 273.96875 64.664062 L 288.796875 50.957031 L 309.105469 72.929688 L 294.277344 86.636719 Z M 273.96875 64.664062 " clip-rule="nonzero"/></clipPath></defs><g clip-path="url(#da59e6fb9f)"><g clip-path="url(#62ee1f7f80)"><g clip-path="url(#3277ea379f)"><path fill="#ff004d" d="M 288.464844 72.046875 L 270.488281 71.25 C 267.015625 71.09375 266.429688 77.859375 270.542969 77.972656 L 281.730469 78.273438 L 280.875 89.527344 C 280.613281 92.957031 287.300781 93.320312 287.492188 89.835938 Z M 288.464844 72.046875 " fill-opacity="1" fill-rule="nonzero"/></g></g></g><g clip-path="url(#0e912b72cc)"><g clip-path="url(#a0d6d19135)"><g clip-path="url(#9537807e26)"><path fill="#ff004d" d="M 299.105469 62.210938 L 281.128906 61.414062 C 277.660156 61.257812 277.070312 68.023438 281.1875 68.132812 L 292.371094 68.4375 L 291.515625 79.691406 C 291.257812 83.121094 297.941406 83.480469 298.132812 80 Z M 299.105469 62.210938 " fill-opacity="1" fill-rule="nonzero"/></g></g></g><g fill="#ffffff" fill-opacity="1"><g transform="translate(96.882523, 110.796811)"><g><path d="M 15.3125 -4.765625 C 16.34375 -4.765625 17.359375 -4.90625 18.359375 -5.1875 C 19.359375 -5.476562 20.285156 -5.960938 21.140625 -6.640625 C 21.960938 -7.390625 22.765625 -7.734375 23.546875 -7.671875 C 24.328125 -7.617188 24.976562 -7.332031 25.5 -6.8125 C 26.019531 -6.300781 26.28125 -5.660156 26.28125 -4.890625 C 26.28125 -4.128906 25.90625 -3.390625 25.15625 -2.671875 C 23.90625 -1.460938 22.421875 -0.613281 20.703125 -0.125 C 18.992188 0.351562 17.25 0.570312 15.46875 0.53125 C 12.6875 0.53125 10.234375 -0.0351562 8.109375 -1.171875 C 5.984375 -2.316406 4.320312 -3.90625 3.125 -5.9375 C 1.9375 -7.96875 1.34375 -10.320312 1.34375 -13 C 1.34375 -15.925781 1.910156 -18.492188 3.046875 -20.703125 C 4.191406 -22.921875 5.804688 -24.65625 7.890625 -25.90625 C 9.984375 -27.15625 12.457031 -27.78125 15.3125 -27.78125 C 18.164062 -27.78125 20.585938 -27.195312 22.578125 -26.03125 C 24.578125 -24.875 26.101562 -23.25 27.15625 -21.15625 C 28.207031 -19.070312 28.734375 -16.640625 28.734375 -13.859375 C 28.734375 -12.960938 28.554688 -12.203125 28.203125 -11.578125 C 27.847656 -10.960938 26.898438 -10.65625 25.359375 -10.65625 L 7.546875 -10.65625 C 8.046875 -8.90625 8.988281 -7.484375 10.375 -6.390625 C 11.769531 -5.304688 13.414062 -4.765625 15.3125 -4.765625 Z M 15.359375 -22.484375 C 13.285156 -22.484375 11.550781 -21.828125 10.15625 -20.515625 C 8.769531 -19.210938 7.882812 -17.507812 7.5 -15.40625 L 23.0625 -15.40625 C 22.882812 -17.507812 22.1875 -19.210938 20.96875 -20.515625 C 19.757812 -21.828125 17.890625 -22.484375 15.359375 -22.484375 Z M 15.359375 -22.484375 "/></g></g></g><g fill="#ffffff" fill-opacity="1"><g transform="translate(127.970282, 110.796811)"><g><path d="M 7.96875 -2.671875 C 7.96875 -1.960938 7.671875 -1.335938 7.078125 -0.796875 C 6.492188 -0.265625 5.773438 0 4.921875 0 C 4.023438 0 3.289062 -0.265625 2.71875 -0.796875 C 2.15625 -1.335938 1.875 -1.960938 1.875 -2.671875 L 1.875 -31.953125 C 1.875 -32.660156 2.15625 -33.28125 2.71875 -33.8125 C 3.289062 -34.351562 4.023438 -34.625 4.921875 -34.625 C 5.773438 -34.625 6.492188 -34.351562 7.078125 -33.8125 C 7.671875 -33.28125 7.96875 -32.660156 7.96875 -31.953125 Z M 7.96875 -2.671875 "/></g></g></g><g fill="#ffffff" fill-opacity="1"><g transform="translate(136.74514, 110.796811)"><g><path d="M 15.3125 -4.765625 C 16.34375 -4.765625 17.359375 -4.90625 18.359375 -5.1875 C 19.359375 -5.476562 20.285156 -5.960938 21.140625 -6.640625 C 21.960938 -7.390625 22.765625 -7.734375 23.546875 -7.671875 C 24.328125 -7.617188 24.976562 -7.332031 25.5 -6.8125 C 26.019531 -6.300781 26.28125 -5.660156 26.28125 -4.890625 C 26.28125 -4.128906 25.90625 -3.390625 25.15625 -2.671875 C 23.90625 -1.460938 22.421875 -0.613281 20.703125 -0.125 C 18.992188 0.351562 17.25 0.570312 15.46875 0.53125 C 12.6875 0.53125 10.234375 -0.0351562 8.109375 -1.171875 C 5.984375 -2.316406 4.320312 -3.90625 3.125 -5.9375 C 1.9375 -7.96875 1.34375 -10.320312 1.34375 -13 C 1.34375 -15.925781 1.910156 -18.492188 3.046875 -20.703125 C 4.191406 -22.921875 5.804688 -24.65625 7.890625 -25.90625 C 9.984375 -27.15625 12.457031 -27.78125 15.3125 -27.78125 C 18.164062 -27.78125 20.585938 -27.195312 22.578125 -26.03125 C 24.578125 -24.875 26.101562 -23.25 27.15625 -21.15625 C 28.207031 -19.070312 28.734375 -16.640625 28.734375 -13.859375 C 28.734375 -12.960938 28.554688 -12.203125 28.203125 -11.578125 C 27.847656 -10.960938 26.898438 -10.65625 25.359375 -10.65625 L 7.546875 -10.65625 C 8.046875 -8.90625 8.988281 -7.484375 10.375 -6.390625 C 11.769531 -5.304688 13.414062 -4.765625 15.3125 -4.765625 Z M 15.359375 -22.484375 C 13.285156 -22.484375 11.550781 -21.828125 10.15625 -20.515625 C 8.769531 -19.210938 7.882812 -17.507812 7.5 -15.40625 L 23.0625 -15.40625 C 22.882812 -17.507812 22.1875 -19.210938 20.96875 -20.515625 C 19.757812 -21.828125 17.890625 -22.484375 15.359375 -22.484375 Z M 15.359375 -22.484375 "/></g></g></g><g fill="#ffffff" fill-opacity="1"><g transform="translate(167.832899, 110.796811)"><g><path d="M 0.046875 -23.21875 C -0.203125 -23.9375 -0.210938 -24.597656 0.015625 -25.203125 C 0.253906 -25.804688 0.648438 -26.296875 1.203125 -26.671875 C 1.753906 -27.046875 2.332031 -27.234375 2.9375 -27.234375 C 3.582031 -27.234375 4.144531 -27.0625 4.625 -26.71875 C 5.113281 -26.382812 5.476562 -25.929688 5.71875 -25.359375 L 13.921875 -8.78125 L 22.109375 -25.421875 C 22.421875 -26.066406 22.835938 -26.53125 23.359375 -26.8125 C 23.878906 -27.09375 24.421875 -27.234375 24.984375 -27.234375 C 25.628906 -27.234375 26.207031 -27.0625 26.71875 -26.71875 C 27.238281 -26.382812 27.597656 -25.921875 27.796875 -25.328125 C 27.992188 -24.742188 27.894531 -24.0625 27.5 -23.28125 L 16.59375 -1.125 C 16.34375 -0.65625 15.96875 -0.265625 15.46875 0.046875 C 14.96875 0.367188 14.414062 0.53125 13.8125 0.53125 C 12.632812 0.53125 11.738281 0.015625 11.125 -1.015625 Z M 0.046875 -23.21875 "/></g></g></g><g fill="#ffffff" fill-opacity="1"><g transform="translate(195.496137, 110.796811)"><g><path d="M 24.890625 -27.234375 C 25.816406 -27.234375 26.554688 -26.972656 27.109375 -26.453125 C 27.660156 -25.941406 27.9375 -25.273438 27.9375 -24.453125 L 27.9375 -2.78125 C 27.9375 -1.957031 27.660156 -1.285156 27.109375 -0.765625 C 26.554688 -0.253906 25.816406 0 24.890625 0 C 23.992188 0 23.296875 -0.203125 22.796875 -0.609375 C 22.296875 -1.023438 21.992188 -1.570312 21.890625 -2.25 C 20.671875 -1.28125 19.3125 -0.570312 17.8125 -0.125 C 16.320312 0.3125 14.898438 0.53125 13.546875 0.53125 C 10.972656 0.53125 8.75 -0.0546875 6.875 -1.234375 C 5 -2.410156 3.5625 -4.066406 2.5625 -6.203125 C 1.570312 -8.347656 1.078125 -10.847656 1.078125 -13.703125 C 1.078125 -16.484375 1.628906 -18.925781 2.734375 -21.03125 C 3.835938 -23.132812 5.378906 -24.785156 7.359375 -25.984375 C 9.335938 -27.179688 11.628906 -27.78125 14.234375 -27.78125 C 15.378906 -27.78125 16.644531 -27.5625 18.03125 -27.125 C 19.425781 -26.695312 20.710938 -26.019531 21.890625 -25.09375 C 22.035156 -25.738281 22.351562 -26.253906 22.84375 -26.640625 C 23.34375 -27.035156 24.023438 -27.234375 24.890625 -27.234375 Z M 14.1875 -4.875 C 15.75 -4.875 17.257812 -5.21875 18.71875 -5.90625 C 20.1875 -6.601562 21.222656 -7.628906 21.828125 -8.984375 L 21.828125 -18.25 C 21.148438 -19.570312 20.132812 -20.585938 18.78125 -21.296875 C 17.425781 -22.015625 16.050781 -22.375 14.65625 -22.375 C 12.414062 -22.375 10.609375 -21.550781 9.234375 -19.90625 C 7.859375 -18.269531 7.171875 -16.179688 7.171875 -13.640625 C 7.171875 -11.003906 7.8125 -8.882812 9.09375 -7.28125 C 10.382812 -5.675781 12.082031 -4.875 14.1875 -4.875 Z M 14.1875 -4.875 "/></g></g></g><g fill="#ffffff" fill-opacity="1"><g transform="translate(226.423369, 110.796811)"><g><path d="M 14.71875 -5.078125 C 15.539062 -5.546875 16.28125 -5.707031 16.9375 -5.5625 C 17.59375 -5.425781 18.125 -5.113281 18.53125 -4.625 C 18.945312 -4.144531 19.15625 -3.582031 19.15625 -2.9375 C 19.15625 -2.476562 19.007812 -2.015625 18.71875 -1.546875 C 18.4375 -1.085938 17.992188 -0.695312 17.390625 -0.375 C 16.609375 0.0507812 15.894531 0.304688 15.25 0.390625 C 14.601562 0.484375 13.851562 0.53125 13 0.53125 C 10.6875 0.53125 8.90625 0.0507812 7.65625 -0.90625 C 6.40625 -1.875 5.546875 -3.125 5.078125 -4.65625 C 4.617188 -6.1875 4.390625 -7.8125 4.390625 -9.53125 L 4.390625 -22.15625 L 2.359375 -22.15625 C 1.359375 -22.15625 0.613281 -22.421875 0.125 -22.953125 C -0.351562 -23.492188 -0.59375 -24.066406 -0.59375 -24.671875 C -0.59375 -25.316406 -0.34375 -25.90625 0.15625 -26.4375 C 0.65625 -26.96875 1.390625 -27.234375 2.359375 -27.234375 L 4.390625 -27.234375 L 4.390625 -31.84375 C 4.390625 -32.769531 4.691406 -33.460938 5.296875 -33.921875 C 5.898438 -34.390625 6.597656 -34.625 7.390625 -34.625 C 8.140625 -34.625 8.832031 -34.390625 9.46875 -33.921875 C 10.113281 -33.460938 10.4375 -32.769531 10.4375 -31.84375 L 10.4375 -27.234375 L 14.609375 -27.234375 C 15.535156 -27.234375 16.25 -26.96875 16.75 -26.4375 C 17.25 -25.90625 17.5 -25.316406 17.5 -24.671875 C 17.5 -24.023438 17.25 -23.441406 16.75 -22.921875 C 16.25 -22.410156 15.535156 -22.15625 14.609375 -22.15625 L 10.4375 -22.15625 L 10.4375 -9.53125 C 10.4375 -8.738281 10.488281 -7.976562 10.59375 -7.25 C 10.695312 -6.519531 10.9375 -5.910156 11.3125 -5.421875 C 11.6875 -4.941406 12.25 -4.703125 13 -4.703125 C 13.289062 -4.703125 13.601562 -4.75 13.9375 -4.84375 C 14.28125 -4.9375 14.539062 -5.015625 14.71875 -5.078125 Z M 14.71875 -5.078125 "/></g></g></g><g fill="#ffffff" fill-opacity="1"><g transform="translate(244.990222, 110.796811)"><g><path d="M 15.3125 -4.765625 C 16.34375 -4.765625 17.359375 -4.90625 18.359375 -5.1875 C 19.359375 -5.476562 20.285156 -5.960938 21.140625 -6.640625 C 21.960938 -7.390625 22.765625 -7.734375 23.546875 -7.671875 C 24.328125 -7.617188 24.976562 -7.332031 25.5 -6.8125 C 26.019531 -6.300781 26.28125 -5.660156 26.28125 -4.890625 C 26.28125 -4.128906 25.90625 -3.390625 25.15625 -2.671875 C 23.90625 -1.460938 22.421875 -0.613281 20.703125 -0.125 C 18.992188 0.351562 17.25 0.570312 15.46875 0.53125 C 12.6875 0.53125 10.234375 -0.0351562 8.109375 -1.171875 C 5.984375 -2.316406 4.320312 -3.90625 3.125 -5.9375 C 1.9375 -7.96875 1.34375 -10.320312 1.34375 -13 C 1.34375 -15.925781 1.910156 -18.492188 3.046875 -20.703125 C 4.191406 -22.921875 5.804688 -24.65625 7.890625 -25.90625 C 9.984375 -27.15625 12.457031 -27.78125 15.3125 -27.78125 C 18.164062 -27.78125 20.585938 -27.195312 22.578125 -26.03125 C 24.578125 -24.875 26.101562 -23.25 27.15625 -21.15625 C 28.207031 -19.070312 28.734375 -16.640625 28.734375 -13.859375 C 28.734375 -12.960938 28.554688 -12.203125 28.203125 -11.578125 C 27.847656 -10.960938 26.898438 -10.65625 25.359375 -10.65625 L 7.546875 -10.65625 C 8.046875 -8.90625 8.988281 -7.484375 10.375 -6.390625 C 11.769531 -5.304688 13.414062 -4.765625 15.3125 -4.765625 Z M 15.359375 -22.484375 C 13.285156 -22.484375 11.550781 -21.828125 10.15625 -20.515625 C 8.769531 -19.210938 7.882812 -17.507812 7.5 -15.40625 L 23.0625 -15.40625 C 22.882812 -17.507812 22.1875 -19.210938 20.96875 -20.515625 C 19.757812 -21.828125 17.890625 -22.484375 15.359375 -22.484375 Z M 15.359375 -22.484375 "/></g></g></g><g fill="#ffffff" fill-opacity="1"><g transform="translate(98.622542, 131.664795)"><g><path d="M 12.1875 -9.328125 C 13.226562 -9.328125 14.078125 -8.988281 14.734375 -8.3125 C 15.398438 -7.644531 15.734375 -6.65625 15.734375 -5.34375 L 15.734375 0 L 15 0 L 15 -5.296875 C 15 -6.390625 14.734375 -7.222656 14.203125 -7.796875 C 13.679688 -8.378906 12.96875 -8.671875 12.0625 -8.671875 C 11.125 -8.671875 10.367188 -8.34375 9.796875 -7.6875 C 9.222656 -7.039062 8.9375 -6.097656 8.9375 -4.859375 L 8.9375 0 L 8.1875 0 L 8.1875 -5.296875 C 8.1875 -6.390625 7.925781 -7.222656 7.40625 -7.796875 C 6.882812 -8.378906 6.171875 -8.671875 5.265625 -8.671875 C 4.328125 -8.671875 3.570312 -8.34375 3 -7.6875 C 2.425781 -7.039062 2.140625 -6.097656 2.140625 -4.859375 L 2.140625 0 L 1.375 0 L 1.375 -9.140625 L 2.140625 -9.140625 L 2.140625 -7.15625 C 2.398438 -7.875 2.816406 -8.414062 3.390625 -8.78125 C 3.960938 -9.144531 4.628906 -9.328125 5.390625 -9.328125 C 6.210938 -9.328125 6.925781 -9.109375 7.53125 -8.671875 C 8.132812 -8.242188 8.546875 -7.609375 8.765625 -6.765625 C 8.984375 -7.609375 9.398438 -8.242188 10.015625 -8.671875 C 10.628906 -9.109375 11.351562 -9.328125 12.1875 -9.328125 Z M 12.1875 -9.328125 "/></g></g></g><g fill="#ffffff" fill-opacity="1"><g transform="translate(115.034584, 131.664795)"><g><path d="M 0.90625 -4.578125 C 0.90625 -5.515625 1.09375 -6.335938 1.46875 -7.046875 C 1.84375 -7.753906 2.363281 -8.296875 3.03125 -8.671875 C 3.695312 -9.054688 4.457031 -9.25 5.3125 -9.25 C 6.28125 -9.25 7.097656 -9.015625 7.765625 -8.546875 C 8.441406 -8.078125 8.914062 -7.476562 9.1875 -6.75 L 9.1875 -9.140625 L 9.953125 -9.140625 L 9.953125 0 L 9.1875 0 L 9.1875 -2.40625 C 8.914062 -1.664062 8.441406 -1.054688 7.765625 -0.578125 C 7.085938 -0.0976562 6.269531 0.140625 5.3125 0.140625 C 4.457031 0.140625 3.695312 -0.0507812 3.03125 -0.4375 C 2.363281 -0.832031 1.84375 -1.382812 1.46875 -2.09375 C 1.09375 -2.800781 0.90625 -3.628906 0.90625 -4.578125 Z M 9.1875 -4.578125 C 9.1875 -5.367188 9.019531 -6.070312 8.6875 -6.6875 C 8.351562 -7.300781 7.898438 -7.769531 7.328125 -8.09375 C 6.765625 -8.425781 6.128906 -8.59375 5.421875 -8.59375 C 4.679688 -8.59375 4.03125 -8.429688 3.46875 -8.109375 C 2.90625 -7.796875 2.46875 -7.335938 2.15625 -6.734375 C 1.84375 -6.128906 1.6875 -5.410156 1.6875 -4.578125 C 1.6875 -3.742188 1.84375 -3.023438 2.15625 -2.421875 C 2.46875 -1.816406 2.90625 -1.347656 3.46875 -1.015625 C 4.039062 -0.691406 4.691406 -0.53125 5.421875 -0.53125 C 6.128906 -0.53125 6.769531 -0.695312 7.34375 -1.03125 C 7.925781 -1.363281 8.378906 -1.832031 8.703125 -2.4375 C 9.023438 -3.050781 9.1875 -3.765625 9.1875 -4.578125 Z M 9.1875 -4.578125 "/></g></g></g><g fill="#ffffff" fill-opacity="1"><g transform="translate(125.7234, 131.664795)"><g><path d="M 2.140625 -7.25 C 2.359375 -7.925781 2.753906 -8.441406 3.328125 -8.796875 C 3.898438 -9.148438 4.628906 -9.328125 5.515625 -9.328125 L 5.515625 -8.53125 L 5.265625 -8.53125 C 4.367188 -8.53125 3.625 -8.273438 3.03125 -7.765625 C 2.4375 -7.253906 2.140625 -6.421875 2.140625 -5.265625 L 2.140625 0 L 1.375 0 L 1.375 -9.140625 L 2.140625 -9.140625 Z M 2.140625 -7.25 "/></g></g></g><g fill="#ffffff" fill-opacity="1"><g transform="translate(130.975136, 131.664795)"><g><path d="M 6.125 0 L 2.140625 -4.1875 L 2.140625 0 L 1.375 0 L 1.375 -12.453125 L 2.140625 -12.453125 L 2.140625 -5 L 6.0625 -9.140625 L 7.125 -9.140625 L 2.6875 -4.59375 L 7.171875 0 Z M 6.125 0 "/></g></g></g><g fill="#ffffff" fill-opacity="1"><g transform="translate(137.691346, 131.664795)"><g><path d="M 9.609375 -5.1875 C 9.609375 -4.78125 9.597656 -4.476562 9.578125 -4.28125 L 1.6875 -4.28125 C 1.707031 -3.457031 1.882812 -2.765625 2.21875 -2.203125 C 2.550781 -1.640625 2.992188 -1.21875 3.546875 -0.9375 C 4.097656 -0.65625 4.695312 -0.515625 5.34375 -0.515625 C 6.25 -0.515625 7.003906 -0.734375 7.609375 -1.171875 C 8.210938 -1.617188 8.59375 -2.226562 8.75 -3 L 9.546875 -3 C 9.359375 -2.0625 8.894531 -1.300781 8.15625 -0.71875 C 7.414062 -0.144531 6.476562 0.140625 5.34375 0.140625 C 4.5 0.140625 3.738281 -0.0507812 3.0625 -0.4375 C 2.382812 -0.820312 1.851562 -1.367188 1.46875 -2.078125 C 1.09375 -2.785156 0.90625 -3.617188 0.90625 -4.578125 C 0.90625 -5.523438 1.09375 -6.351562 1.46875 -7.0625 C 1.84375 -7.769531 2.367188 -8.3125 3.046875 -8.6875 C 3.722656 -9.0625 4.488281 -9.25 5.34375 -9.25 C 6.21875 -9.25 6.976562 -9.0625 7.625 -8.6875 C 8.269531 -8.3125 8.757812 -7.8125 9.09375 -7.1875 C 9.4375 -6.570312 9.609375 -5.90625 9.609375 -5.1875 Z M 8.84375 -4.890625 C 8.882812 -5.703125 8.742188 -6.390625 8.421875 -6.953125 C 8.097656 -7.515625 7.660156 -7.929688 7.109375 -8.203125 C 6.566406 -8.472656 5.972656 -8.609375 5.328125 -8.609375 C 4.691406 -8.609375 4.101562 -8.472656 3.5625 -8.203125 C 3.019531 -7.929688 2.578125 -7.515625 2.234375 -6.953125 C 1.890625 -6.390625 1.707031 -5.703125 1.6875 -4.890625 Z M 8.84375 -4.890625 "/></g></g></g><g fill="#ffffff" fill-opacity="1"><g transform="translate(147.572171, 131.664795)"><g><path d="M 2.5 -8.484375 L 2.5 -2.4375 C 2.5 -1.769531 2.625 -1.304688 2.875 -1.046875 C 3.125 -0.796875 3.5625 -0.671875 4.1875 -0.671875 L 5.21875 -0.671875 L 5.21875 0 L 4.078125 0 C 3.273438 0 2.6875 -0.1875 2.3125 -0.5625 C 1.9375 -0.9375 1.75 -1.5625 1.75 -2.4375 L 1.75 -8.484375 L 0.375 -8.484375 L 0.375 -9.140625 L 1.75 -9.140625 L 1.75 -11.453125 L 2.5 -11.453125 L 2.5 -9.140625 L 5.21875 -9.140625 L 5.21875 -8.484375 Z M 2.5 -8.484375 "/></g></g></g><g fill="#ffffff" fill-opacity="1"><g transform="translate(152.773407, 131.664795)"><g><path d="M 1.765625 -11.171875 C 1.585938 -11.171875 1.4375 -11.226562 1.3125 -11.34375 C 1.1875 -11.46875 1.125 -11.628906 1.125 -11.828125 C 1.125 -12.015625 1.1875 -12.171875 1.3125 -12.296875 C 1.4375 -12.421875 1.585938 -12.484375 1.765625 -12.484375 C 1.941406 -12.484375 2.09375 -12.421875 2.21875 -12.296875 C 2.34375 -12.171875 2.40625 -12.015625 2.40625 -11.828125 C 2.40625 -11.628906 2.34375 -11.46875 2.21875 -11.34375 C 2.09375 -11.226562 1.941406 -11.171875 1.765625 -11.171875 Z M 2.140625 -9.140625 L 2.140625 0 L 1.375 0 L 1.375 -9.140625 Z M 2.140625 -9.140625 "/></g></g></g><g fill="#ffffff" fill-opacity="1"><g transform="translate(155.668514, 131.664795)"><g><path d="M 5.5 -9.328125 C 6.59375 -9.328125 7.476562 -8.988281 8.15625 -8.3125 C 8.84375 -7.644531 9.1875 -6.65625 9.1875 -5.34375 L 9.1875 0 L 8.453125 0 L 8.453125 -5.296875 C 8.453125 -6.390625 8.175781 -7.222656 7.625 -7.796875 C 7.070312 -8.378906 6.328125 -8.671875 5.390625 -8.671875 C 4.398438 -8.671875 3.609375 -8.351562 3.015625 -7.71875 C 2.429688 -7.09375 2.140625 -6.164062 2.140625 -4.9375 L 2.140625 0 L 1.375 0 L 1.375 -9.140625 L 2.140625 -9.140625 L 2.140625 -7.203125 C 2.398438 -7.890625 2.828125 -8.414062 3.421875 -8.78125 C 4.023438 -9.144531 4.71875 -9.328125 5.5 -9.328125 Z M 5.5 -9.328125 "/></g></g></g><g fill="#ffffff" fill-opacity="1"><g transform="translate(165.515675, 131.664795)"><g><path d="M 5.3125 -9.25 C 6.28125 -9.25 7.097656 -9.015625 7.765625 -8.546875 C 8.441406 -8.085938 8.914062 -7.492188 9.1875 -6.765625 L 9.1875 -9.140625 L 9.953125 -9.140625 L 9.953125 0.28125 C 9.953125 1.125 9.765625 1.863281 9.390625 2.5 C 9.015625 3.132812 8.515625 3.617188 7.890625 3.953125 C 7.265625 4.296875 6.5625 4.46875 5.78125 4.46875 C 4.644531 4.46875 3.695312 4.191406 2.9375 3.640625 C 2.1875 3.097656 1.695312 2.363281 1.46875 1.4375 L 2.21875 1.4375 C 2.445312 2.164062 2.867188 2.742188 3.484375 3.171875 C 4.097656 3.597656 4.863281 3.8125 5.78125 3.8125 C 6.425781 3.8125 7.003906 3.671875 7.515625 3.390625 C 8.035156 3.109375 8.441406 2.695312 8.734375 2.15625 C 9.035156 1.625 9.1875 1 9.1875 0.28125 L 9.1875 -2.390625 C 8.914062 -1.660156 8.441406 -1.054688 7.765625 -0.578125 C 7.085938 -0.0976562 6.269531 0.140625 5.3125 0.140625 C 4.457031 0.140625 3.695312 -0.0507812 3.03125 -0.4375 C 2.363281 -0.832031 1.84375 -1.382812 1.46875 -2.09375 C 1.09375 -2.800781 0.90625 -3.628906 0.90625 -4.578125 C 0.90625 -5.515625 1.09375 -6.335938 1.46875 -7.046875 C 1.84375 -7.753906 2.363281 -8.296875 3.03125 -8.671875 C 3.695312 -9.054688 4.457031 -9.25 5.3125 -9.25 Z M 9.1875 -4.578125 C 9.1875 -5.367188 9.019531 -6.070312 8.6875 -6.6875 C 8.351562 -7.300781 7.898438 -7.769531 7.328125 -8.09375 C 6.765625 -8.425781 6.128906 -8.59375 5.421875 -8.59375 C 4.679688 -8.59375 4.03125 -8.429688 3.46875 -8.109375 C 2.90625 -7.796875 2.46875 -7.335938 2.15625 -6.734375 C 1.84375 -6.128906 1.6875 -5.410156 1.6875 -4.578125 C 1.6875 -3.742188 1.84375 -3.023438 2.15625 -2.421875 C 2.46875 -1.816406 2.90625 -1.347656 3.46875 -1.015625 C 4.039062 -0.691406 4.691406 -0.53125 5.421875 -0.53125 C 6.128906 -0.53125 6.769531 -0.695312 7.34375 -1.03125 C 7.925781 -1.363281 8.378906 -1.832031 8.703125 -2.4375 C 9.023438 -3.050781 9.1875 -3.765625 9.1875 -4.578125 Z M 9.1875 -4.578125 "/></g></g></g><g fill="#ffffff" fill-opacity="1"><g transform="translate(176.204489, 131.664795)"><g/></g></g><g fill="#ffffff" fill-opacity="1"><g transform="translate(180.311579, 131.664795)"><g><path d="M 2.5 -8.484375 L 2.5 -2.4375 C 2.5 -1.769531 2.625 -1.304688 2.875 -1.046875 C 3.125 -0.796875 3.5625 -0.671875 4.1875 -0.671875 L 5.21875 -0.671875 L 5.21875 0 L 4.078125 0 C 3.273438 0 2.6875 -0.1875 2.3125 -0.5625 C 1.9375 -0.9375 1.75 -1.5625 1.75 -2.4375 L 1.75 -8.484375 L 0.375 -8.484375 L 0.375 -9.140625 L 1.75 -9.140625 L 1.75 -11.453125 L 2.5 -11.453125 L 2.5 -9.140625 L 5.21875 -9.140625 L 5.21875 -8.484375 Z M 2.5 -8.484375 "/></g></g></g><g fill="#ffffff" fill-opacity="1"><g transform="translate(185.512816, 131.664795)"><g><path d="M 5.515625 -9.328125 C 6.597656 -9.328125 7.476562 -8.988281 8.15625 -8.3125 C 8.84375 -7.644531 9.1875 -6.65625 9.1875 -5.34375 L 9.1875 0 L 8.453125 0 L 8.453125 -5.296875 C 8.453125 -6.390625 8.175781 -7.222656 7.625 -7.796875 C 7.070312 -8.378906 6.328125 -8.671875 5.390625 -8.671875 C 4.398438 -8.671875 3.609375 -8.351562 3.015625 -7.71875 C 2.429688 -7.09375 2.140625 -6.164062 2.140625 -4.9375 L 2.140625 0 L 1.375 0 L 1.375 -12.453125 L 2.140625 -12.453125 L 2.140625 -7.203125 C 2.398438 -7.890625 2.832031 -8.414062 3.4375 -8.78125 C 4.039062 -9.144531 4.734375 -9.328125 5.515625 -9.328125 Z M 5.515625 -9.328125 "/></g></g></g><g fill="#ffffff" fill-opacity="1"><g transform="translate(195.359977, 131.664795)"><g><path d="M 0.90625 -4.578125 C 0.90625 -5.515625 1.09375 -6.335938 1.46875 -7.046875 C 1.84375 -7.753906 2.363281 -8.296875 3.03125 -8.671875 C 3.695312 -9.054688 4.457031 -9.25 5.3125 -9.25 C 6.28125 -9.25 7.097656 -9.015625 7.765625 -8.546875 C 8.441406 -8.078125 8.914062 -7.476562 9.1875 -6.75 L 9.1875 -9.140625 L 9.953125 -9.140625 L 9.953125 0 L 9.1875 0 L 9.1875 -2.40625 C 8.914062 -1.664062 8.441406 -1.054688 7.765625 -0.578125 C 7.085938 -0.0976562 6.269531 0.140625 5.3125 0.140625 C 4.457031 0.140625 3.695312 -0.0507812 3.03125 -0.4375 C 2.363281 -0.832031 1.84375 -1.382812 1.46875 -2.09375 C 1.09375 -2.800781 0.90625 -3.628906 0.90625 -4.578125 Z M 9.1875 -4.578125 C 9.1875 -5.367188 9.019531 -6.070312 8.6875 -6.6875 C 8.351562 -7.300781 7.898438 -7.769531 7.328125 -8.09375 C 6.765625 -8.425781 6.128906 -8.59375 5.421875 -8.59375 C 4.679688 -8.59375 4.03125 -8.429688 3.46875 -8.109375 C 2.90625 -7.796875 2.46875 -7.335938 2.15625 -6.734375 C 1.84375 -6.128906 1.6875 -5.410156 1.6875 -4.578125 C 1.6875 -3.742188 1.84375 -3.023438 2.15625 -2.421875 C 2.46875 -1.816406 2.90625 -1.347656 3.46875 -1.015625 C 4.039062 -0.691406 4.691406 -0.53125 5.421875 -0.53125 C 6.128906 -0.53125 6.769531 -0.695312 7.34375 -1.03125 C 7.925781 -1.363281 8.378906 -1.832031 8.703125 -2.4375 C 9.023438 -3.050781 9.1875 -3.765625 9.1875 -4.578125 Z M 9.1875 -4.578125 "/></g></g></g><g fill="#ffffff" fill-opacity="1"><g transform="translate(206.048791, 131.664795)"><g><path d="M 2.5 -8.484375 L 2.5 -2.4375 C 2.5 -1.769531 2.625 -1.304688 2.875 -1.046875 C 3.125 -0.796875 3.5625 -0.671875 4.1875 -0.671875 L 5.21875 -0.671875 L 5.21875 0 L 4.078125 0 C 3.273438 0 2.6875 -0.1875 2.3125 -0.5625 C 1.9375 -0.9375 1.75 -1.5625 1.75 -2.4375 L 1.75 -8.484375 L 0.375 -8.484375 L 0.375 -9.140625 L 1.75 -9.140625 L 1.75 -11.453125 L 2.5 -11.453125 L 2.5 -9.140625 L 5.21875 -9.140625 L 5.21875 -8.484375 Z M 2.5 -8.484375 "/></g></g></g><g fill="#ffffff" fill-opacity="1"><g transform="translate(211.250034, 131.664795)"><g/></g></g><g fill="#ffffff" fill-opacity="1"><g transform="translate(215.357124, 131.664795)"><g><path d="M 12.1875 -9.328125 C 13.226562 -9.328125 14.078125 -8.988281 14.734375 -8.3125 C 15.398438 -7.644531 15.734375 -6.65625 15.734375 -5.34375 L 15.734375 0 L 15 0 L 15 -5.296875 C 15 -6.390625 14.734375 -7.222656 14.203125 -7.796875 C 13.679688 -8.378906 12.96875 -8.671875 12.0625 -8.671875 C 11.125 -8.671875 10.367188 -8.34375 9.796875 -7.6875 C 9.222656 -7.039062 8.9375 -6.097656 8.9375 -4.859375 L 8.9375 0 L 8.1875 0 L 8.1875 -5.296875 C 8.1875 -6.390625 7.925781 -7.222656 7.40625 -7.796875 C 6.882812 -8.378906 6.171875 -8.671875 5.265625 -8.671875 C 4.328125 -8.671875 3.570312 -8.34375 3 -7.6875 C 2.425781 -7.039062 2.140625 -6.097656 2.140625 -4.859375 L 2.140625 0 L 1.375 0 L 1.375 -9.140625 L 2.140625 -9.140625 L 2.140625 -7.15625 C 2.398438 -7.875 2.816406 -8.414062 3.390625 -8.78125 C 3.960938 -9.144531 4.628906 -9.328125 5.390625 -9.328125 C 6.210938 -9.328125 6.925781 -9.109375 7.53125 -8.671875 C 8.132812 -8.242188 8.546875 -7.609375 8.765625 -6.765625 C 8.984375 -7.609375 9.398438 -8.242188 10.015625 -8.671875 C 10.628906 -9.109375 11.351562 -9.328125 12.1875 -9.328125 Z M 12.1875 -9.328125 "/></g></g></g><g fill="#ffffff" fill-opacity="1"><g transform="translate(231.769164, 131.664795)"><g><path d="M 0.90625 -4.578125 C 0.90625 -5.515625 1.09375 -6.335938 1.46875 -7.046875 C 1.84375 -7.753906 2.363281 -8.296875 3.03125 -8.671875 C 3.695312 -9.054688 4.457031 -9.25 5.3125 -9.25 C 6.28125 -9.25 7.097656 -9.015625 7.765625 -8.546875 C 8.441406 -8.078125 8.914062 -7.476562 9.1875 -6.75 L 9.1875 -9.140625 L 9.953125 -9.140625 L 9.953125 0 L 9.1875 0 L 9.1875 -2.40625 C 8.914062 -1.664062 8.441406 -1.054688 7.765625 -0.578125 C 7.085938 -0.0976562 6.269531 0.140625 5.3125 0.140625 C 4.457031 0.140625 3.695312 -0.0507812 3.03125 -0.4375 C 2.363281 -0.832031 1.84375 -1.382812 1.46875 -2.09375 C 1.09375 -2.800781 0.90625 -3.628906 0.90625 -4.578125 Z M 9.1875 -4.578125 C 9.1875 -5.367188 9.019531 -6.070312 8.6875 -6.6875 C 8.351562 -7.300781 7.898438 -7.769531 7.328125 -8.09375 C 6.765625 -8.425781 6.128906 -8.59375 5.421875 -8.59375 C 4.679688 -8.59375 4.03125 -8.429688 3.46875 -8.109375 C 2.90625 -7.796875 2.46875 -7.335938 2.15625 -6.734375 C 1.84375 -6.128906 1.6875 -5.410156 1.6875 -4.578125 C 1.6875 -3.742188 1.84375 -3.023438 2.15625 -2.421875 C 2.46875 -1.816406 2.90625 -1.347656 3.46875 -1.015625 C 4.039062 -0.691406 4.691406 -0.53125 5.421875 -0.53125 C 6.128906 -0.53125 6.769531 -0.695312 7.34375 -1.03125 C 7.925781 -1.363281 8.378906 -1.832031 8.703125 -2.4375 C 9.023438 -3.050781 9.1875 -3.765625 9.1875 -4.578125 Z M 9.1875 -4.578125 "/></g></g></g><g fill="#ffffff" fill-opacity="1"><g transform="translate(242.457978, 131.664795)"><g><path d="M 2.5 -8.484375 L 2.5 -2.4375 C 2.5 -1.769531 2.625 -1.304688 2.875 -1.046875 C 3.125 -0.796875 3.5625 -0.671875 4.1875 -0.671875 L 5.21875 -0.671875 L 5.21875 0 L 4.078125 0 C 3.273438 0 2.6875 -0.1875 2.3125 -0.5625 C 1.9375 -0.9375 1.75 -1.5625 1.75 -2.4375 L 1.75 -8.484375 L 0.375 -8.484375 L 0.375 -9.140625 L 1.75 -9.140625 L 1.75 -11.453125 L 2.5 -11.453125 L 2.5 -9.140625 L 5.21875 -9.140625 L 5.21875 -8.484375 Z M 2.5 -8.484375 "/></g></g></g><g fill="#ffffff" fill-opacity="1"><g transform="translate(247.659215, 131.664795)"><g><path d="M 2.5 -8.484375 L 2.5 -2.4375 C 2.5 -1.769531 2.625 -1.304688 2.875 -1.046875 C 3.125 -0.796875 3.5625 -0.671875 4.1875 -0.671875 L 5.21875 -0.671875 L 5.21875 0 L 4.078125 0 C 3.273438 0 2.6875 -0.1875 2.3125 -0.5625 C 1.9375 -0.9375 1.75 -1.5625 1.75 -2.4375 L 1.75 -8.484375 L 0.375 -8.484375 L 0.375 -9.140625 L 1.75 -9.140625 L 1.75 -11.453125 L 2.5 -11.453125 L 2.5 -9.140625 L 5.21875 -9.140625 L 5.21875 -8.484375 Z M 2.5 -8.484375 "/></g></g></g><g fill="#ffffff" fill-opacity="1"><g transform="translate(252.860451, 131.664795)"><g><path d="M 9.609375 -5.1875 C 9.609375 -4.78125 9.597656 -4.476562 9.578125 -4.28125 L 1.6875 -4.28125 C 1.707031 -3.457031 1.882812 -2.765625 2.21875 -2.203125 C 2.550781 -1.640625 2.992188 -1.21875 3.546875 -0.9375 C 4.097656 -0.65625 4.695312 -0.515625 5.34375 -0.515625 C 6.25 -0.515625 7.003906 -0.734375 7.609375 -1.171875 C 8.210938 -1.617188 8.59375 -2.226562 8.75 -3 L 9.546875 -3 C 9.359375 -2.0625 8.894531 -1.300781 8.15625 -0.71875 C 7.414062 -0.144531 6.476562 0.140625 5.34375 0.140625 C 4.5 0.140625 3.738281 -0.0507812 3.0625 -0.4375 C 2.382812 -0.820312 1.851562 -1.367188 1.46875 -2.078125 C 1.09375 -2.785156 0.90625 -3.617188 0.90625 -4.578125 C 0.90625 -5.523438 1.09375 -6.351562 1.46875 -7.0625 C 1.84375 -7.769531 2.367188 -8.3125 3.046875 -8.6875 C 3.722656 -9.0625 4.488281 -9.25 5.34375 -9.25 C 6.21875 -9.25 6.976562 -9.0625 7.625 -8.6875 C 8.269531 -8.3125 8.757812 -7.8125 9.09375 -7.1875 C 9.4375 -6.570312 9.609375 -5.90625 9.609375 -5.1875 Z M 8.84375 -4.890625 C 8.882812 -5.703125 8.742188 -6.390625 8.421875 -6.953125 C 8.097656 -7.515625 7.660156 -7.929688 7.109375 -8.203125 C 6.566406 -8.472656 5.972656 -8.609375 5.328125 -8.609375 C 4.691406 -8.609375 4.101562 -8.472656 3.5625 -8.203125 C 3.019531 -7.929688 2.578125 -7.515625 2.234375 -6.953125 C 1.890625 -6.390625 1.707031 -5.703125 1.6875 -4.890625 Z M 8.84375 -4.890625 "/></g></g></g><g fill="#ffffff" fill-opacity="1"><g transform="translate(262.741276, 131.664795)"><g><path d="M 2.140625 -7.25 C 2.359375 -7.925781 2.753906 -8.441406 3.328125 -8.796875 C 3.898438 -9.148438 4.628906 -9.328125 5.515625 -9.328125 L 5.515625 -8.53125 L 5.265625 -8.53125 C 4.367188 -8.53125 3.625 -8.273438 3.03125 -7.765625 C 2.4375 -7.253906 2.140625 -6.421875 2.140625 -5.265625 L 2.140625 0 L 1.375 0 L 1.375 -9.140625 L 2.140625 -9.140625 Z M 2.140625 -7.25 "/></g></g></g><g fill="#ffffff" fill-opacity="1"><g transform="translate(267.993009, 131.664795)"><g><path d="M 4.421875 0.140625 C 3.398438 0.140625 2.566406 -0.0820312 1.921875 -0.53125 C 1.273438 -0.988281 0.914062 -1.628906 0.84375 -2.453125 L 1.609375 -2.453125 C 1.671875 -1.859375 1.941406 -1.382812 2.421875 -1.03125 C 2.910156 -0.6875 3.578125 -0.515625 4.421875 -0.515625 C 5.117188 -0.515625 5.671875 -0.691406 6.078125 -1.046875 C 6.492188 -1.398438 6.703125 -1.835938 6.703125 -2.359375 C 6.703125 -2.710938 6.59375 -3.003906 6.375 -3.234375 C 6.15625 -3.460938 5.878906 -3.640625 5.546875 -3.765625 C 5.222656 -3.890625 4.78125 -4.023438 4.21875 -4.171875 C 3.550781 -4.347656 3.007812 -4.523438 2.59375 -4.703125 C 2.175781 -4.878906 1.820312 -5.140625 1.53125 -5.484375 C 1.238281 -5.828125 1.09375 -6.289062 1.09375 -6.875 C 1.09375 -7.300781 1.222656 -7.695312 1.484375 -8.0625 C 1.742188 -8.425781 2.101562 -8.710938 2.5625 -8.921875 C 3.019531 -9.140625 3.539062 -9.25 4.125 -9.25 C 5.070312 -9.25 5.835938 -9.007812 6.421875 -8.53125 C 7.015625 -8.0625 7.335938 -7.40625 7.390625 -6.5625 L 6.625 -6.5625 C 6.59375 -7.164062 6.359375 -7.65625 5.921875 -8.03125 C 5.484375 -8.414062 4.878906 -8.609375 4.109375 -8.609375 C 3.453125 -8.609375 2.910156 -8.441406 2.484375 -8.109375 C 2.054688 -7.773438 1.84375 -7.363281 1.84375 -6.875 C 1.84375 -6.457031 1.960938 -6.113281 2.203125 -5.84375 C 2.453125 -5.582031 2.753906 -5.378906 3.109375 -5.234375 C 3.460938 -5.097656 3.929688 -4.953125 4.515625 -4.796875 C 5.148438 -4.628906 5.660156 -4.460938 6.046875 -4.296875 C 6.429688 -4.140625 6.757812 -3.90625 7.03125 -3.59375 C 7.300781 -3.28125 7.4375 -2.867188 7.4375 -2.359375 C 7.4375 -1.890625 7.304688 -1.460938 7.046875 -1.078125 C 6.785156 -0.691406 6.425781 -0.390625 5.96875 -0.171875 C 5.507812 0.0351562 4.992188 0.140625 4.421875 0.140625 Z M 4.421875 0.140625 "/></g></g></g></svg>