<svg width="358" height="358" viewBox="0 0 358 358" fill="none" xmlns="http://www.w3.org/2000/svg">
<g clip-path="url(#clip0_3296_5314)">
<path d="M0.466309 0.466064L357.531 357.53" stroke="#00ffae" stroke-miterlimit="10"/>
<path d="M357.531 333.825L24.1714 0.466064" stroke="#00ffae" stroke-miterlimit="10"/>
<path d="M357.531 310.12L47.8765 0.466064" stroke="#00ffae" stroke-miterlimit="10"/>
<path d="M357.531 286.415L71.5815 0.466064" stroke="#00ffae" stroke-miterlimit="10"/>
<path d="M357.531 262.71L95.2866 0.466064" stroke="#00ffae" stroke-miterlimit="10"/>
<path d="M357.531 239.005L118.992 0.466064" stroke="#00ffae" stroke-miterlimit="10"/>
<path d="M357.531 215.3L142.697 0.466064" stroke="#00ffae" stroke-miterlimit="10"/>
<path d="M357.53 191.595L166.402 0.466064" stroke="#00ffae" stroke-miterlimit="10"/>
<path d="M357.53 167.89L190.107 0.466064" stroke="#00ffae" stroke-miterlimit="10"/>
<path d="M357.53 144.184L213.812 0.466064" stroke="#00ffae" stroke-miterlimit="10"/>
<path d="M357.531 120.479L237.517 0.466064" stroke="#00ffae" stroke-miterlimit="10"/>
<path d="M357.531 96.7743L261.222 0.466064" stroke="#00ffae" stroke-miterlimit="10"/>
<path d="M357.531 73.0692L284.927 0.466064" stroke="#00ffae" stroke-miterlimit="10"/>
<path d="M49.3643 357.531L0.466309 308.633" stroke="#00ffae" stroke-miterlimit="10"/>
<path d="M73.0694 357.531L0.466309 284.927" stroke="#00ffae" stroke-miterlimit="10"/>
<path d="M1.95408 357.53L0.466309 356.043" stroke="#00ffae" stroke-miterlimit="10"/>
<path d="M25.6592 357.531L0.466309 332.338" stroke="#00ffae" stroke-miterlimit="10"/>
<path d="M96.7745 357.531L0.466309 261.222" stroke="#00ffae" stroke-miterlimit="10"/>
<path d="M120.48 357.531L0.466309 237.517" stroke="#00ffae" stroke-miterlimit="10"/>
<path d="M144.185 357.53L0.466309 213.812" stroke="#00ffae" stroke-miterlimit="10"/>
<path d="M167.89 357.53L0.466309 190.107" stroke="#00ffae" stroke-miterlimit="10"/>
<path d="M191.595 357.53L0.466309 166.402" stroke="#00ffae" stroke-miterlimit="10"/>
<path d="M215.3 357.531L0.466309 142.697" stroke="#00ffae" stroke-miterlimit="10"/>
<path d="M239.005 357.531L0.466309 118.992" stroke="#00ffae" stroke-miterlimit="10"/>
<path d="M262.71 357.531L0.466309 95.2866" stroke="#00ffae" stroke-miterlimit="10"/>
<path d="M286.415 357.531L0.466309 71.5815" stroke="#00ffae" stroke-miterlimit="10"/>
<path d="M310.12 357.531L0.466309 47.8765" stroke="#00ffae" stroke-miterlimit="10"/>
<path d="M333.826 357.531L0.466309 24.1714" stroke="#00ffae" stroke-miterlimit="10"/>
<path d="M357.531 49.364L308.633 0.466064" stroke="#00ffae" stroke-miterlimit="10"/>
<path d="M357.531 25.6589L332.338 0.466064" stroke="#00ffae" stroke-miterlimit="10"/>
<path d="M357.53 1.95383L356.043 0.466064" stroke="#00ffae" stroke-miterlimit="10"/>
</g>
<defs>
<clipPath id="clip0_3296_5314">
<rect width="358" height="358" rx="30" fill="white"/>
</clipPath>
</defs>
</svg>
